<svg width="88" height="88" viewBox="0 0 88 88" fill="none" xmlns="http://www.w3.org/2000/svg">
<path d="M42.3026 1.51307C43.3584 0.927521 44.6416 0.927521 45.6974 1.51307L47.7774 2.66651C48.7741 3.21926 49.9434 3.37321 51.0493 3.09727L53.3568 2.52145C54.5283 2.22913 55.7677 2.56123 56.636 3.4001L58.3465 5.05257C59.1662 5.84446 60.2559 6.29581 61.3955 6.31548L63.7735 6.35652C64.9806 6.37736 66.0918 7.01892 66.7135 8.05395L67.938 10.0928C68.5248 11.0699 69.4606 11.7879 70.5562 12.1018L72.8425 12.7569C74.0032 13.0895 74.9105 13.9968 75.2431 15.1575L75.8982 17.4438C76.2121 18.5394 76.9301 19.4752 77.9072 20.062L79.946 21.2865C80.9811 21.9082 81.6226 23.0194 81.6435 24.2265L81.6845 26.6045C81.7042 27.7441 82.1555 28.8338 82.9474 29.6535L84.5999 31.364C85.4388 32.2323 85.7709 33.4717 85.4786 34.6432L84.9027 36.9508C84.6268 38.0566 84.7807 39.2259 85.3335 40.2226L86.4869 42.3026C87.0725 43.3584 87.0725 44.6416 86.4869 45.6974L85.3335 47.7774C84.7807 48.7741 84.6268 49.9434 84.9027 51.0492L85.4786 53.3568C85.7709 54.5283 85.4388 55.7677 84.5999 56.636L82.9474 58.3465C82.1555 59.1662 81.7042 60.2559 81.6845 61.3955L81.6435 63.7735C81.6226 64.9806 80.9811 66.0918 79.946 66.7135L77.9072 67.938C76.9301 68.5248 76.2121 69.4606 75.8982 70.5562L75.2431 72.8425C74.9105 74.0032 74.0032 74.9105 72.8425 75.2431L70.5562 75.8982C69.4606 76.2121 68.5248 76.9301 67.938 77.9072L66.7135 79.946C66.0918 80.9811 64.9806 81.6226 63.7735 81.6435L61.3955 81.6845C60.2559 81.7042 59.1662 82.1555 58.3465 82.9474L56.636 84.5999C55.7677 85.4388 54.5283 85.7709 53.3568 85.4786L51.0492 84.9027C49.9434 84.6268 48.7741 84.7807 47.7774 85.3335L45.6974 86.4869C44.6416 87.0725 43.3584 87.0725 42.3026 86.4869L40.2226 85.3335C39.2259 84.7807 38.0566 84.6268 36.9508 84.9027L34.6432 85.4786C33.4717 85.7709 32.2323 85.4388 31.364 84.5999L29.6535 82.9474C28.8338 82.1555 27.7441 81.7042 26.6045 81.6845L24.2265 81.6435C23.0194 81.6226 21.9082 80.9811 21.2865 79.946L20.062 77.9072C19.4752 76.9301 18.5394 76.2121 17.4438 75.8982L15.1575 75.2431C13.9968 74.9105 13.0895 74.0032 12.7569 72.8425L12.1018 70.5562C11.7879 69.4606 11.0699 68.5248 10.0928 67.938L8.05395 66.7135C7.01892 66.0918 6.37736 64.9806 6.35652 63.7735L6.31548 61.3955C6.29581 60.2559 5.84446 59.1662 5.05257 58.3465L3.4001 56.636C2.56123 55.7677 2.22913 54.5283 2.52145 53.3568L3.09727 51.0493C3.37321 49.9434 3.21926 48.7741 2.66652 47.7774L1.51307 45.6974C0.927521 44.6416 0.927521 43.3584 1.51307 42.3026L2.66651 40.2226C3.21926 39.2259 3.37321 38.0566 3.09727 36.9507L2.52145 34.6432C2.22913 33.4717 2.56123 32.2323 3.4001 31.364L5.05257 29.6535C5.84446 28.8338 6.29581 27.7441 6.31548 26.6045L6.35652 24.2265C6.37736 23.0194 7.01892 21.9082 8.05395 21.2865L10.0928 20.062C11.0699 19.4752 11.7879 18.5395 12.1018 17.4438L12.7569 15.1575C13.0895 13.9968 13.9968 13.0895 15.1575 12.7569L17.4438 12.1018C18.5394 11.7879 19.4752 11.0699 20.062 10.0928L21.2865 8.05395C21.9082 7.01892 23.0194 6.37736 24.2265 6.35652L26.6045 6.31548C27.7441 6.29581 28.8338 5.84446 29.6535 5.05257L31.364 3.4001C32.2323 2.56123 33.4717 2.22913 34.6432 2.52145L36.9507 3.09727C38.0566 3.37321 39.2259 3.21926 40.2226 2.66652L42.3026 1.51307Z" stroke="#268A30"/>
</svg>
