<svg width="60" height="60" viewBox="0 0 60 60" fill="none" xmlns="http://www.w3.org/2000/svg">
<path d="M33.3773 9.42656L53.8758 45.0211C55.3125 47.5289 53.4563 50.625 50.4984 50.625H9.50157C6.54376 50.625 4.68751 47.5289 6.12422 45.0211L26.6227 9.42656C28.0992 6.85781 31.9008 6.85781 33.3773 9.42656Z" fill="#DFDFDF"/>
<mask id="path-2-inside-1_302_558" fill="white">
<path fill-rule="evenodd" clip-rule="evenodd" d="M30 21.5C31.3807 21.5 32.5 22.6193 32.5 24V35C32.5 36.3807 31.3807 37.5 30 37.5C28.6193 37.5 27.5 36.3807 27.5 35V24C27.5 22.6193 28.6193 21.5 30 21.5Z"/>
<path d="M30 45C31.5533 45 32.8125 43.7408 32.8125 42.1875C32.8125 40.6342 31.5533 39.375 30 39.375C28.4467 39.375 27.1875 40.6342 27.1875 42.1875C27.1875 43.7408 28.4467 45 30 45Z"/>
</mask>
<path fill-rule="evenodd" clip-rule="evenodd" d="M30 21.5C31.3807 21.5 32.5 22.6193 32.5 24V35C32.5 36.3807 31.3807 37.5 30 37.5C28.6193 37.5 27.5 36.3807 27.5 35V24C27.5 22.6193 28.6193 21.5 30 21.5Z" fill="#666666"/>
<path d="M30 45C31.5533 45 32.8125 43.7408 32.8125 42.1875C32.8125 40.6342 31.5533 39.375 30 39.375C28.4467 39.375 27.1875 40.6342 27.1875 42.1875C27.1875 43.7408 28.4467 45 30 45Z" fill="#666666"/>
<path d="M36.5 24C36.5 20.4101 33.5899 17.5 30 17.5V25.5C29.1716 25.5 28.5 24.8284 28.5 24H36.5ZM36.5 35V24H28.5V35H36.5ZM30 41.5C33.5899 41.5 36.5 38.5898 36.5 35H28.5C28.5 34.1716 29.1716 33.5 30 33.5V41.5ZM23.5 35C23.5 38.5898 26.4101 41.5 30 41.5V33.5C30.8284 33.5 31.5 34.1716 31.5 35H23.5ZM23.5 24V35H31.5V24H23.5ZM30 17.5C26.4101 17.5 23.5 20.4101 23.5 24H31.5C31.5 24.8284 30.8284 25.5 30 25.5V17.5ZM28.8125 42.1875C28.8125 41.5317 29.3442 41 30 41V49C33.7624 49 36.8125 45.9499 36.8125 42.1875H28.8125ZM30 41C30.6558 41 31.1875 41.5317 31.1875 42.1875H23.1875C23.1875 45.9499 26.2376 49 30 49V41ZM31.1875 42.1875C31.1875 42.8433 30.6558 43.375 30 43.375V35.375C26.2376 35.375 23.1875 38.4251 23.1875 42.1875H31.1875ZM30 43.375C29.3442 43.375 28.8125 42.8433 28.8125 42.1875H36.8125C36.8125 38.4251 33.7624 35.375 30 35.375V43.375Z" fill="#666666" mask="url(#path-2-inside-1_302_558)"/>
</svg>
